<?xml version="1.0" encoding="UTF-8"?>
<!DOCTYPE svg PUBLIC "-//W3C//DTD SVG 1.1//EN" "http://www.w3.org/Graphics/SVG/1.1/DTD/svg11.dtd">
<svg xmlns="http://www.w3.org/2000/svg" version="1.1" width="190px" height="190px" style="shape-rendering:geometricPrecision; text-rendering:geometricPrecision; image-rendering:optimizeQuality; fill-rule:evenodd; clip-rule:evenodd" xmlns:xlink="http://www.w3.org/1999/xlink">
<g><path style="opacity:1" fill="#fcfcfc" d="M 149.5,9.5 C 156.833,9.5 164.167,9.5 171.5,9.5C 171.5,11.5 171.5,13.5 171.5,15.5C 165.824,15.3339 160.157,15.5006 154.5,16C 149.208,24.0822 144.042,32.2489 139,40.5C 138.517,41.448 138.351,42.448 138.5,43.5C 152.171,43.3334 165.837,43.5001 179.5,44C 155,65.1667 130.5,86.3333 106,107.5C 105.333,124.833 105.333,142.167 106,159.5C 118.273,165.719 130.773,171.552 143.5,177C 144.696,177.654 144.696,178.154 143.5,178.5C 115.464,177.343 87.4636,177.176 59.5,178C 71.7274,171.59 84.2274,165.757 97,160.5C 97.833,142.158 97.6663,123.824 96.5,105.5C 73.0184,85.1861 49.6851,64.6861 26.5,44C 60.8333,43.6667 95.1667,43.3333 129.5,43C 136.832,32.159 143.499,20.9924 149.5,9.5 Z M 40.5,50.5 C 68.3284,49.502 96.3284,49.1687 124.5,49.5C 124.509,51.3084 124.009,52.9751 123,54.5C 120.584,57.6628 118.418,60.9961 116.5,64.5C 97.5088,65.6664 78.5088,65.833 59.5,65C 53.1367,60.1578 46.8034,55.3245 40.5,50.5 Z M 133.5,49.5 C 144.172,49.3335 154.839,49.5002 165.5,50C 159.5,55 153.5,60 147.5,65C 139.812,65.8315 132.145,65.6648 124.5,64.5C 127.763,59.638 130.763,54.638 133.5,49.5 Z M 103.5,79.5 C 111.65,78.1597 115.483,81.493 115,89.5C 113.089,94.418 109.589,96.2514 104.5,95C 99.9315,92.4586 98.4315,88.6253 100,83.5C 101.376,82.2949 102.542,80.9616 103.5,79.5 Z"/></g>
<g><path style="opacity:1" fill="#fafafa" d="M 26.5,20.5 C 40.5592,20.1643 48.5592,26.831 50.5,40.5C 39.8281,40.3335 29.1615,40.5002 18.5,41C 24.6023,47.858 30.9357,54.5247 37.5,61C 28.2894,64.547 20.4561,62.3803 14,54.5C 6.40893,38.7686 10.5756,27.4353 26.5,20.5 Z M 30.5,24.5 C 32.1958,24.6854 33.5291,25.5187 34.5,27C 33.3826,28.8921 31.7159,29.7254 29.5,29.5C 29.366,27.7085 29.6993,26.0418 30.5,24.5 Z M 19.5,31.5 C 25.0159,31.4734 26.3492,33.64 23.5,38C 18.1766,38.1802 16.8433,36.0136 19.5,31.5 Z M 37.5,31.5 C 42.3276,31.3852 43.6609,33.5519 41.5,38C 35.7377,38.4178 34.4044,36.2511 37.5,31.5 Z M 17.5,47.5 C 23.0159,47.4734 24.3492,49.64 21.5,54C 16.1766,54.1802 14.8433,52.0136 17.5,47.5 Z M 26.5,56.5 C 30.1729,57.7076 30.3396,59.3743 27,61.5C 26.1667,60.6667 25.3333,59.8333 24.5,59C 25.3805,58.2917 26.0472,57.4584 26.5,56.5 Z"/></g>
<g><path style="opacity:0.02" fill="#6666ff" d="M -0.5,188.5 C 0.166667,188.5 0.5,188.833 0.5,189.5C 0.166667,189.167 -0.166667,188.833 -0.5,188.5 Z"/></g>
</svg>
